<svg id="visual" viewBox="0 0 900 600" width="900" height="600" xmlns="http://www.w3.org/2000/svg" xmlns:xlink="http://www.w3.org/1999/xlink" version="1.1"><path d="M0 85L13.7 85C27.3 85 54.7 85 82 83C109.3 81 136.7 77 163.8 77C191 77 218 81 245.2 82C272.3 83 299.7 81 327 83C354.3 85 381.7 91 409 101C436.3 111 463.7 125 491 132C518.3 139 545.7 139 573 135C600.3 131 627.7 123 654.8 113C682 103 709 91 736.2 94C763.3 97 790.7 115 818 126C845.3 137 872.7 141 886.3 143L900 145L900 0L886.3 0C872.7 0 845.3 0 818 0C790.7 0 763.3 0 736.2 0C709 0 682 0 654.8 0C627.7 0 600.3 0 573 0C545.7 0 518.3 0 491 0C463.7 0 436.3 0 409 0C381.7 0 354.3 0 327 0C299.7 0 272.3 0 245.2 0C218 0 191 0 163.8 0C136.7 0 109.3 0 82 0C54.7 0 27.3 0 13.7 0L0 0Z" fill="#404449"></path><path d="M0 259L13.7 250C27.3 241 54.7 223 82 212C109.3 201 136.7 197 163.8 201C191 205 218 217 245.2 224C272.3 231 299.7 233 327 239C354.3 245 381.7 255 409 254C436.3 253 463.7 241 491 252C518.3 263 545.7 297 573 293C600.3 289 627.7 247 654.8 233C682 219 709 233 736.2 245C763.3 257 790.7 267 818 265C845.3 263 872.7 249 886.3 242L900 235L900 143L886.3 141C872.7 139 845.3 135 818 124C790.7 113 763.3 95 736.2 92C709 89 682 101 654.8 111C627.7 121 600.3 129 573 133C545.7 137 518.3 137 491 130C463.7 123 436.3 109 409 99C381.7 89 354.3 83 327 81C299.7 79 272.3 81 245.2 80C218 79 191 75 163.8 75C136.7 75 109.3 79 82 81C54.7 83 27.3 83 13.7 83L0 83Z" fill="#2f3236"></path><path d="M0 457L13.7 445C27.3 433 54.7 409 82 407C109.3 405 136.7 425 163.8 435C191 445 218 445 245.2 456C272.3 467 299.7 489 327 486C354.3 483 381.7 455 409 441C436.3 427 463.7 427 491 434C518.3 441 545.7 455 573 458C600.3 461 627.7 453 654.8 451C682 449 709 453 736.2 459C763.3 465 790.7 473 818 467C845.3 461 872.7 441 886.3 431L900 421L900 233L886.3 240C872.7 247 845.3 261 818 263C790.7 265 763.3 255 736.2 243C709 231 682 217 654.8 231C627.7 245 600.3 287 573 291C545.7 295 518.3 261 491 250C463.7 239 436.3 251 409 252C381.7 253 354.3 243 327 237C299.7 231 272.3 229 245.2 222C218 215 191 203 163.8 199C136.7 195 109.3 199 82 210C54.7 221 27.3 239 13.7 248L0 257Z" fill="#1f2124"></path><path d="M0 541L13.7 535C27.3 529 54.7 517 82 513C109.3 509 136.7 513 163.8 522C191 531 218 545 245.2 552C272.3 559 299.7 559 327 556C354.3 553 381.7 547 409 541C436.3 535 463.7 529 491 525C518.3 521 545.7 519 573 523C600.3 527 627.7 537 654.8 541C682 545 709 543 736.2 542C763.3 541 790.7 541 818 539C845.3 537 872.7 533 886.3 531L900 529L900 419L886.3 429C872.7 439 845.3 459 818 465C790.7 471 763.3 463 736.2 457C709 451 682 447 654.8 449C627.7 451 600.3 459 573 456C545.7 453 518.3 439 491 432C463.7 425 436.3 425 409 439C381.7 453 354.3 481 327 484C299.7 487 272.3 465 245.2 454C218 443 191 443 163.8 433C136.7 423 109.3 403 82 405C54.7 407 27.3 431 13.7 443L0 455Z" fill="#1c1d20"></path><path d="M0 601L13.7 601C27.3 601 54.7 601 82 601C109.3 601 136.7 601 163.8 601C191 601 218 601 245.2 601C272.3 601 299.7 601 327 601C354.3 601 381.7 601 409 601C436.3 601 463.7 601 491 601C518.3 601 545.7 601 573 601C600.3 601 627.7 601 654.8 601C682 601 709 601 736.2 601C763.3 601 790.7 601 818 601C845.3 601 872.7 601 886.3 601L900 601L900 527L886.3 529C872.7 531 845.3 535 818 537C790.7 539 763.3 539 736.2 540C709 541 682 543 654.8 539C627.7 535 600.3 525 573 521C545.7 517 518.3 519 491 523C463.7 527 436.3 533 409 539C381.7 545 354.3 551 327 554C299.7 557 272.3 557 245.2 550C218 543 191 529 163.8 520C136.7 511 109.3 507 82 511C54.7 515 27.3 527 13.7 533L0 539Z" fill="#191a1c"></path></svg>