<svg id="visual" viewBox="0 0 900 600" width="900" height="600" xmlns="http://www.w3.org/2000/svg" xmlns:xlink="http://www.w3.org/1999/xlink" version="1.1"><rect x="0" y="0" width="900" height="600" fill="#ffffff"></rect><path d="M0 414L7.8 404.3C15.7 394.7 31.3 375.3 47.2 376.5C63 377.7 79 399.3 94.8 396.8C110.7 394.3 126.3 367.7 142 361C157.7 354.3 173.3 367.7 189.2 374.8C205 382 221 383 236.8 385C252.7 387 268.3 390 284.2 383.2C300 376.3 316 359.7 331.8 368.8C347.7 378 363.3 413 379 412.2C394.7 411.3 410.3 374.7 426.2 364.5C442 354.3 458 370.7 473.8 371.2C489.7 371.7 505.3 356.3 521 363.8C536.7 371.3 552.3 401.7 568.2 409.7C584 417.7 600 403.3 615.8 404.2C631.7 405 647.3 421 663.2 417.7C679 414.3 695 391.7 710.8 374C726.7 356.3 742.3 343.7 758 343C773.7 342.3 789.3 353.7 805.2 366.7C821 379.7 837 394.3 852.8 388C868.7 381.7 884.3 354.3 892.2 340.7L900 327L900 601L892.2 601C884.3 601 868.7 601 852.8 601C837 601 821 601 805.2 601C789.3 601 773.7 601 758 601C742.3 601 726.7 601 710.8 601C695 601 679 601 663.2 601C647.3 601 631.7 601 615.8 601C600 601 584 601 568.2 601C552.3 601 536.7 601 521 601C505.3 601 489.7 601 473.8 601C458 601 442 601 426.2 601C410.3 601 394.7 601 379 601C363.3 601 347.7 601 331.8 601C316 601 300 601 284.2 601C268.3 601 252.7 601 236.8 601C221 601 205 601 189.2 601C173.3 601 157.7 601 142 601C126.3 601 110.7 601 94.8 601C79 601 63 601 47.2 601C31.3 601 15.7 601 7.8 601L0 601Z" fill="#000000"></path><path d="M0 442L7.8 429.5C15.7 417 31.3 392 47.2 380.7C63 369.3 79 371.7 94.8 377C110.7 382.3 126.3 390.7 142 397.5C157.7 404.3 173.3 409.7 189.2 406.3C205 403 221 391 236.8 388.5C252.7 386 268.3 393 284.2 402.7C300 412.3 316 424.7 331.8 418C347.7 411.3 363.3 385.7 379 377.5C394.7 369.3 410.3 378.7 426.2 383.5C442 388.3 458 388.7 473.8 401.7C489.7 414.7 505.3 440.3 521 444.7C536.7 449 552.3 432 568.2 423.3C584 414.7 600 414.3 615.8 407.8C631.7 401.3 647.3 388.7 663.2 397.2C679 405.7 695 435.3 710.8 440.2C726.7 445 742.3 425 758 424.7C773.7 424.3 789.3 443.7 805.2 450.8C821 458 837 453 852.8 448.2C868.7 443.3 884.3 438.7 892.2 436.3L900 434L900 601L892.2 601C884.3 601 868.7 601 852.8 601C837 601 821 601 805.2 601C789.3 601 773.7 601 758 601C742.3 601 726.7 601 710.8 601C695 601 679 601 663.2 601C647.3 601 631.7 601 615.8 601C600 601 584 601 568.2 601C552.3 601 536.7 601 521 601C505.3 601 489.7 601 473.8 601C458 601 442 601 426.2 601C410.3 601 394.7 601 379 601C363.3 601 347.7 601 331.8 601C316 601 300 601 284.2 601C268.3 601 252.7 601 236.8 601C221 601 205 601 189.2 601C173.3 601 157.7 601 142 601C126.3 601 110.7 601 94.8 601C79 601 63 601 47.2 601C31.3 601 15.7 601 7.8 601L0 601Z" fill="#080808"></path><path d="M0 408L7.8 408C15.7 408 31.3 408 47.2 416.7C63 425.3 79 442.7 94.8 445.3C110.7 448 126.3 436 142 427C157.7 418 173.3 412 189.2 414.3C205 416.7 221 427.3 236.8 436.5C252.7 445.7 268.3 453.3 284.2 455.5C300 457.7 316 454.3 331.8 447.5C347.7 440.7 363.3 430.3 379 426.7C394.7 423 410.3 426 426.2 423.8C442 421.7 458 414.3 473.8 411.8C489.7 409.3 505.3 411.7 521 413.7C536.7 415.7 552.3 417.3 568.2 421.3C584 425.3 600 431.7 615.8 429.8C631.7 428 647.3 418 663.2 421.8C679 425.7 695 443.3 710.8 450.5C726.7 457.7 742.3 454.3 758 457.5C773.7 460.7 789.3 470.3 805.2 464.7C821 459 837 438 852.8 425.8C868.7 413.7 884.3 410.3 892.2 408.7L900 407L900 601L892.2 601C884.3 601 868.7 601 852.8 601C837 601 821 601 805.2 601C789.3 601 773.7 601 758 601C742.3 601 726.7 601 710.8 601C695 601 679 601 663.2 601C647.3 601 631.7 601 615.8 601C600 601 584 601 568.2 601C552.3 601 536.7 601 521 601C505.3 601 489.7 601 473.8 601C458 601 442 601 426.2 601C410.3 601 394.7 601 379 601C363.3 601 347.7 601 331.8 601C316 601 300 601 284.2 601C268.3 601 252.7 601 236.8 601C221 601 205 601 189.2 601C173.3 601 157.7 601 142 601C126.3 601 110.7 601 94.8 601C79 601 63 601 47.2 601C31.3 601 15.7 601 7.8 601L0 601Z" fill="#0f0f0f"></path><path d="M0 498L7.8 495.7C15.7 493.3 31.3 488.7 47.2 489C63 489.3 79 494.7 94.8 485.8C110.7 477 126.3 454 142 442.5C157.7 431 173.3 431 189.2 434.2C205 437.3 221 443.7 236.8 445.2C252.7 446.7 268.3 443.3 284.2 442.2C300 441 316 442 331.8 440.5C347.7 439 363.3 435 379 438.5C394.7 442 410.3 453 426.2 450.3C442 447.7 458 431.3 473.8 426.2C489.7 421 505.3 427 521 433.5C536.7 440 552.3 447 568.2 446.7C584 446.3 600 438.7 615.8 432C631.7 425.3 647.3 419.7 663.2 424.8C679 430 695 446 710.8 456.2C726.7 466.3 742.3 470.7 758 473.7C773.7 476.7 789.3 478.3 805.2 472.8C821 467.3 837 454.7 852.8 453.7C868.7 452.7 884.3 463.3 892.2 468.7L900 474L900 601L892.2 601C884.3 601 868.7 601 852.8 601C837 601 821 601 805.2 601C789.3 601 773.7 601 758 601C742.3 601 726.7 601 710.8 601C695 601 679 601 663.2 601C647.3 601 631.7 601 615.8 601C600 601 584 601 568.2 601C552.3 601 536.7 601 521 601C505.3 601 489.7 601 473.8 601C458 601 442 601 426.2 601C410.3 601 394.7 601 379 601C363.3 601 347.7 601 331.8 601C316 601 300 601 284.2 601C268.3 601 252.7 601 236.8 601C221 601 205 601 189.2 601C173.3 601 157.7 601 142 601C126.3 601 110.7 601 94.8 601C79 601 63 601 47.2 601C31.3 601 15.7 601 7.8 601L0 601Z" fill="#151515"></path><path d="M0 518L7.8 509.3C15.7 500.7 31.3 483.3 47.2 474.8C63 466.3 79 466.7 94.8 474.8C110.7 483 126.3 499 142 494.7C157.7 490.3 173.3 465.7 189.2 455.3C205 445 221 449 236.8 459.2C252.7 469.3 268.3 485.7 284.2 488.8C300 492 316 482 331.8 472.7C347.7 463.3 363.3 454.7 379 456.7C394.7 458.7 410.3 471.3 426.2 470.7C442 470 458 456 473.8 458.3C489.7 460.7 505.3 479.3 521 489C536.7 498.7 552.3 499.3 568.2 496.3C584 493.3 600 486.7 615.8 481.5C631.7 476.3 647.3 472.7 663.2 470.5C679 468.3 695 467.7 710.8 472.7C726.7 477.7 742.3 488.3 758 489.7C773.7 491 789.3 483 805.2 480.2C821 477.3 837 479.7 852.8 474.8C868.7 470 884.3 458 892.2 452L900 446L900 601L892.2 601C884.3 601 868.7 601 852.8 601C837 601 821 601 805.2 601C789.3 601 773.7 601 758 601C742.3 601 726.7 601 710.8 601C695 601 679 601 663.2 601C647.3 601 631.7 601 615.8 601C600 601 584 601 568.2 601C552.3 601 536.7 601 521 601C505.3 601 489.7 601 473.8 601C458 601 442 601 426.2 601C410.3 601 394.7 601 379 601C363.3 601 347.7 601 331.8 601C316 601 300 601 284.2 601C268.3 601 252.7 601 236.8 601C221 601 205 601 189.2 601C173.3 601 157.7 601 142 601C126.3 601 110.7 601 94.8 601C79 601 63 601 47.2 601C31.3 601 15.7 601 7.8 601L0 601Z" fill="#191919"></path><path d="M0 528L7.8 524.2C15.7 520.3 31.3 512.7 47.2 504C63 495.3 79 485.7 94.8 487.3C110.7 489 126.3 502 142 501.7C157.7 501.3 173.3 487.7 189.2 482C205 476.3 221 478.7 236.8 487.8C252.7 497 268.3 513 284.2 511C300 509 316 489 331.8 486.8C347.7 484.7 363.3 500.3 379 507C394.7 513.7 410.3 511.3 426.2 503.7C442 496 458 483 473.8 477.5C489.7 472 505.3 474 521 483.3C536.7 492.7 552.3 509.3 568.2 511.7C584 514 600 502 615.8 501.3C631.7 500.7 647.3 511.3 663.2 511.8C679 512.3 695 502.7 710.8 496.5C726.7 490.3 742.3 487.7 758 494.7C773.7 501.7 789.3 518.3 805.2 523.3C821 528.3 837 521.7 852.8 520C868.7 518.3 884.3 521.7 892.2 523.3L900 525L900 601L892.2 601C884.3 601 868.7 601 852.8 601C837 601 821 601 805.2 601C789.3 601 773.7 601 758 601C742.3 601 726.7 601 710.8 601C695 601 679 601 663.2 601C647.3 601 631.7 601 615.8 601C600 601 584 601 568.2 601C552.3 601 536.7 601 521 601C505.3 601 489.7 601 473.8 601C458 601 442 601 426.2 601C410.3 601 394.7 601 379 601C363.3 601 347.7 601 331.8 601C316 601 300 601 284.2 601C268.3 601 252.7 601 236.8 601C221 601 205 601 189.2 601C173.3 601 157.7 601 142 601C126.3 601 110.7 601 94.8 601C79 601 63 601 47.2 601C31.3 601 15.7 601 7.8 601L0 601Z" fill="#1d1d1d"></path><path d="M0 508L7.8 506.5C15.7 505 31.3 502 47.2 505.8C63 509.7 79 520.3 94.8 527.5C110.7 534.7 126.3 538.3 142 536.2C157.7 534 173.3 526 189.2 517.8C205 509.7 221 501.3 236.8 501.3C252.7 501.3 268.3 509.7 284.2 510.2C300 510.7 316 503.3 331.8 508.5C347.7 513.7 363.3 531.3 379 537.3C394.7 543.3 410.3 537.7 426.2 532.3C442 527 458 522 473.8 519.8C489.7 517.7 505.3 518.3 521 514.8C536.7 511.3 552.3 503.7 568.2 501.2C584 498.7 600 501.3 615.8 505.7C631.7 510 647.3 516 663.2 522.5C679 529 695 536 710.8 538.2C726.7 540.3 742.3 537.7 758 538.3C773.7 539 789.3 543 805.2 537.2C821 531.3 837 515.7 852.8 509.7C868.7 503.7 884.3 507.3 892.2 509.2L900 511L900 601L892.2 601C884.3 601 868.7 601 852.8 601C837 601 821 601 805.2 601C789.3 601 773.7 601 758 601C742.3 601 726.7 601 710.8 601C695 601 679 601 663.2 601C647.3 601 631.7 601 615.8 601C600 601 584 601 568.2 601C552.3 601 536.7 601 521 601C505.3 601 489.7 601 473.8 601C458 601 442 601 426.2 601C410.3 601 394.7 601 379 601C363.3 601 347.7 601 331.8 601C316 601 300 601 284.2 601C268.3 601 252.7 601 236.8 601C221 601 205 601 189.2 601C173.3 601 157.7 601 142 601C126.3 601 110.7 601 94.8 601C79 601 63 601 47.2 601C31.3 601 15.7 601 7.8 601L0 601Z" fill="#212121"></path><path d="M0 533L7.8 532.8C15.7 532.7 31.3 532.3 47.2 533.5C63 534.7 79 537.3 94.8 540.5C110.7 543.7 126.3 547.3 142 546.7C157.7 546 173.3 541 189.2 536.2C205 531.3 221 526.7 236.8 531.7C252.7 536.7 268.3 551.3 284.2 553.7C300 556 316 546 331.8 541.2C347.7 536.3 363.3 536.7 379 534.2C394.7 531.7 410.3 526.3 426.2 532.2C442 538 458 555 473.8 561.8C489.7 568.7 505.3 565.3 521 561.5C536.7 557.7 552.3 553.3 568.2 551.2C584 549 600 549 615.8 550.5C631.7 552 647.3 555 663.2 552.5C679 550 695 542 710.8 539C726.7 536 742.3 538 758 538.5C773.7 539 789.3 538 805.2 535.2C821 532.3 837 527.7 852.8 524.8C868.7 522 884.3 521 892.2 520.5L900 520L900 601L892.2 601C884.3 601 868.7 601 852.8 601C837 601 821 601 805.2 601C789.3 601 773.7 601 758 601C742.3 601 726.7 601 710.8 601C695 601 679 601 663.2 601C647.3 601 631.7 601 615.8 601C600 601 584 601 568.2 601C552.3 601 536.7 601 521 601C505.3 601 489.7 601 473.8 601C458 601 442 601 426.2 601C410.3 601 394.7 601 379 601C363.3 601 347.7 601 331.8 601C316 601 300 601 284.2 601C268.3 601 252.7 601 236.8 601C221 601 205 601 189.2 601C173.3 601 157.7 601 142 601C126.3 601 110.7 601 94.8 601C79 601 63 601 47.2 601C31.3 601 15.7 601 7.8 601L0 601Z" fill="#262626"></path><path d="M0 587L7.8 585.2C15.7 583.3 31.3 579.7 47.2 574.3C63 569 79 562 94.8 560.3C110.7 558.7 126.3 562.3 142 568C157.7 573.7 173.3 581.3 189.2 580.3C205 579.3 221 569.7 236.8 564.5C252.7 559.3 268.3 558.7 284.2 556.8C300 555 316 552 331.8 556.5C347.7 561 363.3 573 379 575.3C394.7 577.7 410.3 570.3 426.2 568.2C442 566 458 569 473.8 567.2C489.7 565.3 505.3 558.7 521 560.3C536.7 562 552.3 572 568.2 571.8C584 571.7 600 561.3 615.8 559.7C631.7 558 647.3 565 663.2 570.8C679 576.7 695 581.3 710.8 581.5C726.7 581.7 742.3 577.3 758 573.3C773.7 569.3 789.3 565.7 805.2 564.2C821 562.7 837 563.3 852.8 561C868.7 558.7 884.3 553.3 892.2 550.7L900 548L900 601L892.2 601C884.3 601 868.7 601 852.8 601C837 601 821 601 805.2 601C789.3 601 773.7 601 758 601C742.3 601 726.7 601 710.8 601C695 601 679 601 663.2 601C647.3 601 631.7 601 615.8 601C600 601 584 601 568.2 601C552.3 601 536.7 601 521 601C505.3 601 489.7 601 473.8 601C458 601 442 601 426.2 601C410.3 601 394.7 601 379 601C363.3 601 347.7 601 331.8 601C316 601 300 601 284.2 601C268.3 601 252.7 601 236.8 601C221 601 205 601 189.2 601C173.3 601 157.7 601 142 601C126.3 601 110.7 601 94.8 601C79 601 63 601 47.2 601C31.3 601 15.7 601 7.8 601L0 601Z" fill="#2a2a2a"></path></svg>