<?xml version="1.0" encoding="UTF-8"?>
<svg version="1.1" viewBox="0 0 1200 1200" width="1280" height="1280" xmlns="http://www.w3.org/2000/svg">
<path transform="translate(0)" d="m0 0h1200v1200h-1200z" fill="#161C2E"/>
<path transform="translate(204,453)" d="m0 0h54l2 1-1 5-19 19h-12l-5 2-2 5v8l3 5 5 3 9-1 5-5 1-8v-6l27-27 2-1h44l5 2 2 3v114l-4 1-8-7-11-11-1-7v-6l-4-6-3-2h-9l-5 3-2 4v8l3 5 6 3h11l19 19-1 5h-113l-5-4v-119l4-4z" fill="#FAF7F2"/>
<path transform="translate(496,646)" d="m0 0h38l12 4 8 7 4 10v15l-5 10-8 7-7 3-5 1h-20v31h-17z" fill="#FAF7F2"/>
<path transform="translate(341,671)" d="m0 0h10l5 3 5 6 7-6 7-3h12l8 4 5 6 2 5 1 7v41h-16l-1-45-2-4-2-1h-9l-4 3-1 3-1 44h-15l-1-41-2-7-2-2h-10l-5 4-1 46h-15v-62h11l4 5 7-5z" fill="#FAF7F2"/>
<path transform="translate(771,671)" d="m0 0h13l9 4 5 4 5 9 1 4v12l-1 1h-40l2 9 4 6 4 2h13l8-4 5 1 4 5-2 4-8 5-7 2h-15l-10-4-5-4-5-7-3-9v-17l4-10 7-8 8-4z" fill="#FAF7F2"/>
<path transform="translate(443,671)" d="m0 0h13l9 4 5 4 5 9 1 4v12l-1 1h-40l2 9 4 6 4 2h13l8-4 5 1 4 5-2 4-8 5-7 2h-15l-10-4-5-4-5-7-3-9v-17l4-10 7-8 8-4z" fill="#FAF7F2"/>
<path transform="translate(191,647)" d="m0 0h69v13h-26v74h-16l-1-5v-68l-26-1z" fill="#FAF7F2"/>
<path transform="translate(576,672)" d="m0 0h16l1 45 2 4 2 1h10l7-4 1-46h15v62h-11l-2-2v-4l-10 6-4 1h-11l-8-4-5-6-2-5-1-14z" fill="#FAF7F2"/>
<path transform="translate(710,670)" d="m0 0 11 1 10 5 2 3-4 6-5 1-8-3-11 1v8l9 4 12 5 5 4 3 7-1 9-4 7-5 4-8 3h-14l-11-4-3-2 1-5 3-4 7 1 7 3h7l5-3v-7l-8-4-13-5-5-5-3-6v-8l4-8 6-5 5-2z" fill="#FAF7F2"/>
<path transform="translate(654,644)" d="m0 0h15v90h-15z" fill="#FAF7F2"/>
<path transform="translate(284,477)" d="m0 0h8l5 3 4 6-1 9-4 5-5 2h-11l-35 35v11l-3 6-4 3-8 1-6-3-3-3-1-3v-8l4-6 4-2h12l36-36v-12l3-5z" fill="#161C2E"/>
<path transform="translate(277,672)" d="m0 0h15v62h-15z" fill="#FAF7F2"/>
<path transform="translate(513,659)" d="m0 0h16l8 3 4 5 1 3v8l-3 7-6 4-4 1h-16z" fill="#161C2E"/>
<path transform="translate(774,682)" d="m0 0h7l7 4 2 4v6h-27l3-9 5-4z" fill="#161C2E"/>
<path transform="translate(446,682)" d="m0 0h7l7 4 2 4v6h-27l3-9 5-4z" fill="#161C2E"/>
<path transform="translate(281,644)" d="m0 0h7l5 4 1 2v7l-4 5-2 1h-7l-5-4-1-2v-7l4-5z" fill="#FAF7F2"/>
<path transform="translate(230,540)" d="m0 0 6 1 2 5-3 4h-6l-2-3 1-5z" fill="#FAF7F2"/>
<path transform="translate(230,484)" d="m0 0 6 1 2 5-3 4h-6l-2-3 1-5z" fill="#FAF7F2"/>
<path transform="translate(286,540)" d="m0 0 6 1 1 1v6l-2 2h-6l-2-3 1-5z" fill="#FAF7F2"/>
<path transform="translate(286,484)" d="m0 0 6 1 1 1v6l-2 2h-6l-2-3 1-5z" fill="#FAF7F2"/>
</svg>
