<?xml version="1.0" encoding="UTF-8"?>
<svg version="1.1" viewBox="0 0 1200 1200" width="1280" height="1280" xmlns="http://www.w3.org/2000/svg">
<path transform="translate(205,453)" d="m0 0h53l2 1-1 5-19 19h-12l-5 3-2 4v9l4 5 4 2h7l6-4 2-4v-12l27-27 2-1h43l5 2 3 4v113l-4 1-20-20v-11l-3-5-4-3h-9l-5 3-2 4v9l4 5 4 2h12l19 19-1 5h-113l-5-5v-118l4-4zm79 24-6 4-2 4v12l-36 36h-12l-6 4-2 4v9l5 6 4 2h7l6-4 3-5v-12l35-35h12l6-4 3-5v-7l-3-5-5-4z" fill="#FEFEFE"/>
<path transform="translate(342,671)" d="m0 0h9l6 4 5 6 6-7 8-3h11l8 4 5 6 2 5v48h-15v-40l-2-8-7-3-7 2-3 4-1 45h-15l-1-42-2-6-2-2h-10l-5 4-1 46h-15v-62h11l2 2v4l10-6z" fill="#FEFEFE"/>
<path transform="translate(496,646)" d="m0 0h37l10 3 9 6 5 8 1 4v14l-4 10-9 8-12 4-20 1v29l-1 1h-16zm16 13v31h18l8-4 3-4 1-3v-9l-3-6-3-3-6-2z" fill="#FEFEFE"/>
<path transform="translate(191,647)" d="m0 0h69v13h-26v74h-16v-74h-27z" fill="#FEFEFE"/>
<path transform="translate(771,671)" d="m0 0h12l8 3 7 5 5 10 1 3v11l-1 2h-40l2 9 4 6 4 2 7 1 9-2 6-3 4 1 4 5-2 4-8 5-8 2h-13l-11-4-5-4-6-10-2-7v-16l4-10 6-7 9-5zm3 11-6 3-4 5-1 6h28l-2-8-5-5-3-1z" fill="#FEFEFE"/>
<path transform="translate(443,671)" d="m0 0h12l8 3 7 5 5 10 1 3v11l-1 2h-40l2 9 4 6 4 2 7 1 9-2 6-3 4 1 4 5-2 4-8 5-8 2h-13l-11-4-5-4-6-10-2-7v-16l4-10 6-7 9-5zm3 11-6 3-4 5-1 6h28l-2-8-5-5-3-1z" fill="#FEFEFE"/>
<path transform="translate(577,672)" d="m0 0h15l1 45 2 4 7 2 8-2 4-3 1-46h15v62h-11l-2-2-1-4-7 5-6 2h-11l-8-4-6-8-1-4z" fill="#FEFEFE"/>
<path transform="translate(704,671)" d="m0 0h16l9 4 4 4-4 6-5 1-7-3h-8l-4 2-1 5 4 4 16 6 6 4 3 5 1 6-2 8-4 6-6 4-7 2h-12l-12-4-3-2 1-5 4-4 6 1 6 3h8l5-3 1-5-4-4-18-7-7-8-1-10 3-8 7-6z" fill="#FEFEFE"/>
<path transform="translate(654,644)" d="m0 0h15v90h-15z" fill="#FEFEFE"/>
<path transform="translate(277,672)" d="m0 0h15v62h-15z" fill="#FEFEFE"/>
<path transform="translate(281,644)" d="m0 0h6l5 3 2 4-1 7-4 4-2 1h-6l-5-4-1-2v-7l4-5z" fill="#FEFEFE"/>
<path transform="translate(231,484)" d="m0 0 5 1 1 1v6l-2 2h-6l-2-3 1-5z" fill="#FEFEFE"/>
<path transform="translate(287,540)" d="m0 0 5 1 1 1v6l-2 2h-6l-2-3 1-5z" fill="#FEFEFE"/>
<path transform="translate(231,540)" d="m0 0 5 1 1 1v6l-2 2h-6l-2-3 1-5z" fill="#FEFEFE"/>
<path transform="translate(287,484)" d="m0 0 5 1 1 1v6l-2 2h-6l-2-3 1-5z" fill="#FEFEFE"/>
</svg>
